<?xml version="1.0" encoding="UTF-8"?><svg xmlns="http://www.w3.org/2000/svg" viewBox="0 0 880 200"><g id="uuid-54096880-fe15-49b6-9273-f0482e245e78"><text transform="translate(335.54 85.6)" fill="#f37f72" font-family="Baumans-Regular, Baumans" font-size="100"><tspan x="0" y="0">EXCELLENCE</tspan></text><text transform="translate(335.69 174.83)" fill="#f37f72" font-family="Baumans-Regular, Baumans" font-size="100"><tspan x="0" y="0">INITIATIVE</tspan></text></g><g id="uuid-85a92309-a551-4184-9501-d389e82780ff"><path d="M312.55,15.83l-66.19,38.18L180.18,15.83v160h6.24c6.64,0,11.89-6.07,11.89-12.71V47.07l48.05,27.77,48.05-27.77v128.76h6.22c6.64,0,11.91-6.07,11.91-12.71V15.83Z" fill="#4e4e4e"/><path d="M146.03,175.14h-6.2V27.85c0-6.64,5.38-12.02,12.02-12.02h6.13v147.27c.1,6.65-5.29,12.05-11.95,12.05Z" fill="#4e4e4e"/><path d="M85.94,86.72c9.97-7.39,13.31-18.7,13.31-31.3,0-21.55-18.04-39.59-40.58-39.59-2.51,0-14.6.05-24.1.08-6.62.03-11.97,5.4-11.97,12.02v147.2h49.85c24.75,0,44.89-20.56,44.89-45.42,0-19.69-12.92-37.19-31.39-43ZM81.21,56.41c0,22.24-17.68,31.07-21.04,33.01-3.36,1.94-8.62,4.96-8.62,4.96-5,2.54-10.92-1.09-10.92-6.7v-53.81h19.54c14.53,0,21.04,10.43,21.04,22.54ZM72.87,157.11h-32.23v-36.07c0-2.68,1.43-5.17,3.76-6.51l15.78-9.11c27.06-14.61,39.08,3.88,39.08,19.23,0,17.67-11.57,32.46-26.38,32.46Z" fill="#4e4e4e"/></g></svg>