<?xml version="1.0" encoding="UTF-8"?><svg id="uuid-b02bf416-8416-45af-8f4c-8b75baea06d5" xmlns="http://www.w3.org/2000/svg" viewBox="0 0 1000 1000"><rect x="50" y="50" width="900" height="900" rx="450" ry="450" fill="#fff"/><path d="M369.46,533.38c0,43.16,46.74,70.12,84.1,48.5l305.44-176.72,72.05-41.71c-53.6-129.82-181.28-221.26-330.4-221.52-195.07-.34-355.94,157.88-358.67,352.93-2.8,200.1,158.57,363.19,358.02,363.19s358.06-160.31,358.06-358.06h-40.42c-22.48,0-41.22,16.7-44.37,38.96-18.93,133.98-134.07,237.05-273.28,237.05-84.85,0-160.73-38.32-211.36-98.57l.08-.05c-43.01-50.81-68.02-117.34-65.04-189.79,5.95-144.65,124.91-261.19,269.66-264.32,90.18-1.95,170.75,39.4,222.47,104.66-.1-.11-.22-.2-.32-.31l-346.04,199.13v6.62Z" fill="#f37f72"/></svg>